<?xml version="1.0" encoding="UTF-8"?>
<svg id="Layer_1" xmlns="http://www.w3.org/2000/svg" version="1.1" xmlns:xlink="http://www.w3.org/1999/xlink" viewBox="0 0 48 46">
  <!-- Generator: Adobe Illustrator 30.3.0, SVG Export Plug-In . SVG Version: 2.1.3 Build 182)  -->
  <defs>
    <style>
      .st0 {
        fill: url(#linear-gradient2);
      }

      .st1 {
        fill: url(#linear-gradient1);
      }

      .st2 {
        fill: url(#linear-gradient4);
      }

      .st3 {
        fill: url(#linear-gradient3);
      }

      .st4 {
        fill: url(#linear-gradient);
      }
    </style>
    <linearGradient id="linear-gradient" x1="-18.74" y1="-26.8" x2="88.71" y2="76.14" gradientUnits="userSpaceOnUse">
      <stop offset="0" stop-color="#f7941d"/>
      <stop offset="1" stop-color="#f15a29"/>
    </linearGradient>
    <linearGradient id="linear-gradient1" x1="-22.64" y1="-22.73" x2="84.8" y2="80.21" xlink:href="#linear-gradient"/>
    <linearGradient id="linear-gradient2" x1="-24.34" y1="-20.96" x2="83.11" y2="81.98" xlink:href="#linear-gradient"/>
    <linearGradient id="linear-gradient3" x1="-32.07" y1="-12.89" x2="75.38" y2="90.05" xlink:href="#linear-gradient"/>
    <linearGradient id="linear-gradient4" x1="-12.67" y1="-33.13" x2="94.77" y2="69.8" xlink:href="#linear-gradient"/>
  </defs>
  <path class="st4" d="M44.82,29.17v2.09c-.3,2.4-1.1,4.75-2.56,6.68-.13.17-.79,1-.91,1.02-1.96-.74-3.68-2.18-5.02-3.77-3.37-4-5.42-10.02-4.63-15.25.13-.87.37-1.73.67-2.55,5.88.11,10.93,4.39,12.16,10.11.11.5.25,1.18.29,1.67Z"/>
  <path class="st1" d="M10.31,4.25c6.33-.44,12.06,3.48,15,8.87.22.4.86,1.53.95,1.89.29,1.13-.47,1.58-1.35,2-6.06,2.9-16.17,3.61-20.34-2.72-3.5-5.33,0-9.64,5.74-10.04Z"/>
  <path class="st0" d="M39.22,40.71c.1.13-.25.3-.34.37-1.86,1.28-4.42,1.85-6.64,1.97-.83.04-2.49.11-3.26,0-.4-.05-.97-.71-1.25-1.01-3.75-3.93-6.4-9.89-7.05-15.28-.08-.62-.33-3.1-.1-3.51.14-.25,1.46-1.48,1.76-1.75,2.07-1.88,4.49-3.43,7.28-3.97-.07.73-.3,1.42-.41,2.14-1.09,7.54,2.89,16.75,9.41,20.76.18.11.4.22.61.27Z"/>
  <path class="st3" d="M18.14,26.33c.35,4.43,1.9,8.76,4.12,12.57l2.66,3.82c-2.68-.35-5.42-.78-8.01-1.57-1.32-.4-4.06-1.22-4.21-2.82-.28-3.15,3.15-9.47,5.2-11.87.07-.09.08-.18.24-.14Z"/>
  <path class="st2" d="M32.26,2.91c2.83-.31,4.15,2.3,3.95,4.79-.25,3.05-2.84,5.62-5.43,6.95-1.58.81-2.38.9-3.14-.88-1.62-3.82-.18-10.32,4.62-10.85Z"/>
</svg>